<?xml version="1.0" standalone="no"?>
<!DOCTYPE svg PUBLIC "-//W3C//DTD SVG 20010904//EN"
 "http://www.w3.org/TR/2001/REC-SVG-20010904/DTD/svg10.dtd">
<svg version="1.0" xmlns="http://www.w3.org/2000/svg"
 width="1065.000000pt" height="1065.000000pt" viewBox="0 0 1065.000000 1065.000000"
 preserveAspectRatio="xMidYMid meet">
<metadata>
Created by potrace 1.11, written by Peter Selinger 2001-2013
</metadata>
<g transform="translate(0.000000,1065.000000) scale(0.100000,-0.100000)"
fill="#000000" stroke="none">
<path d="M3064 7186 c-1832 -455 -2260 -564 -2257 -576 3 -12 27 -15 126 -16
97 -1 144 -6 228 -28 l106 -26 2039 505 2038 505 1856 -460 1856 -460 232 0
232 0 0 -58 0 -58 153 -37 c83 -21 155 -37 158 -37 8 0 54 179 48 184 -6 6
-4533 1126 -4544 1125 -5 -1 -1027 -254 -2271 -563z"/>
<path d="M8980 6150 c0 -148 -4 -270 -8 -270 -5 0 -19 12 -33 26 -56 60 -167
104 -265 104 -67 0 -167 -31 -227 -71 -237 -157 -266 -611 -53 -825 32 -32 80
-66 113 -82 51 -23 71 -26 168 -27 105 0 114 2 177 33 39 19 80 49 98 70 l30
37 0 -68 0 -67 170 0 170 0 0 705 0 705 -170 0 -170 0 0 -270z m-86 -433 c52
-40 77 -96 83 -187 9 -132 -30 -224 -111 -261 -77 -35 -177 -14 -224 46 -73
93 -68 307 10 382 45 44 73 53 144 50 49 -2 69 -8 98 -30z"/>
<path d="M735 6374 c-38 -8 -113 -35 -165 -61 -161 -78 -265 -202 -322 -383
-20 -66 -23 -95 -23 -240 1 -152 3 -171 28 -245 79 -238 258 -393 501 -436
103 -18 313 -7 401 21 79 25 176 73 200 100 15 17 13 26 -35 139 -29 67 -54
121 -55 121 -1 0 -29 -16 -61 -35 -89 -53 -173 -77 -281 -78 -87 -1 -97 2
-160 34 -124 63 -172 157 -180 349 -8 175 24 286 102 365 56 55 115 78 215 83
107 5 187 -14 289 -69 40 -22 76 -37 79 -34 7 7 102 227 102 236 0 15 -91 70
-157 95 -142 54 -330 68 -478 38z"/>
<path d="M1793 5999 c-236 -39 -385 -210 -400 -456 -17 -271 122 -470 368
-528 82 -19 236 -19 317 0 233 55 372 238 372 490 0 92 -16 162 -55 242 -47
95 -107 153 -208 203 -116 56 -250 73 -394 49z m216 -264 c75 -38 107 -124 99
-267 -3 -69 -9 -93 -31 -130 -47 -81 -152 -110 -243 -69 -74 34 -104 101 -104
237 0 167 59 244 188 244 36 0 75 -6 91 -15z"/>
<path d="M3049 5996 c-66 -18 -136 -62 -168 -106 -31 -42 -41 -42 -41 0 0 15
-3 42 -6 59 l-6 31 -161 0 -160 0 7 -46 c3 -26 6 -244 6 -485 l0 -439 175 0
175 0 0 305 c0 335 2 346 59 399 26 25 40 30 86 30 46 1 59 -3 81 -25 15 -16
30 -45 35 -70 4 -24 8 -178 9 -341 l0 -298 169 0 170 0 3 313 c3 291 4 314 23
346 61 104 206 107 234 4 7 -23 11 -162 11 -350 l0 -313 170 0 170 0 0 343 c0
267 -4 356 -15 405 -39 164 -124 238 -284 249 -61 4 -88 1 -140 -17 -75 -25
-140 -67 -178 -115 -16 -19 -31 -35 -34 -35 -4 0 -12 14 -19 30 -44 106 -222
166 -371 126z"/>
<path d="M4727 5990 c-75 -24 -130 -60 -167 -111 -33 -46 -32 -47 -45 54 l-6
47 -161 0 -161 0 7 -46 c3 -26 6 -336 6 -690 l0 -644 175 0 175 0 0 266 0 265
34 -35 c18 -20 60 -48 92 -63 53 -25 70 -28 170 -28 107 0 112 1 186 38 157
77 238 233 238 457 0 109 -17 188 -61 277 -89 184 -293 274 -482 213z m80
-251 c73 -27 113 -100 121 -214 11 -190 -82 -299 -232 -271 -52 10 -97 46
-125 101 -22 42 -26 63 -26 140 0 50 6 107 13 128 18 49 58 96 97 113 37 16
114 18 152 3z"/>
<path d="M5899 6000 c-87 -15 -158 -62 -198 -132 l-29 -50 -6 54 c-4 29 -9 65
-12 81 l-6 27 -160 0 -160 0 6 -32 c3 -18 9 -237 13 -485 l6 -453 168 0 169 0
0 278 c0 247 2 281 19 317 22 49 48 73 98 91 46 16 134 18 186 3 l38 -10 -8
-57 c-13 -95 -8 -251 11 -317 38 -129 122 -231 233 -283 52 -24 70 -27 168
-27 105 0 114 2 177 33 39 19 80 49 98 70 l30 37 0 -68 0 -67 170 0 170 0 0
485 0 485 -170 0 -170 0 0 -60 0 -59 -48 48 c-112 112 -310 132 -458 45 -47
-28 -128 -110 -146 -149 -21 -46 -28 -26 -28 80 0 100 -1 105 -22 109 -55 11
-96 13 -139 6z m718 -261 c73 -27 113 -100 120 -214 8 -131 -25 -211 -107
-252 -110 -56 -236 2 -269 122 -37 134 11 294 101 338 38 19 114 22 155 6z"/>
<path d="M7747 6000 c-62 -16 -137 -59 -182 -106 -24 -24 -46 -44 -49 -44 -3
0 -6 12 -6 28 0 15 -3 44 -6 65 l-7 37 -160 0 -160 0 7 -52 c3 -29 6 -248 6
-485 l0 -433 169 0 169 0 4 303 c3 335 3 334 72 394 57 51 151 56 194 10 39
-42 42 -69 42 -393 l0 -314 170 0 170 0 0 346 c0 282 -3 357 -16 408 -41 159
-134 235 -298 242 -45 2 -98 -1 -119 -6z"/>
<path d="M9793 5999 c-236 -39 -385 -210 -400 -456 -20 -333 184 -543 527
-543 317 0 510 172 527 470 12 218 -74 383 -246 474 -112 58 -264 79 -408 55z
m216 -264 c75 -38 107 -124 99 -267 -3 -69 -9 -93 -31 -130 -47 -81 -152 -110
-243 -69 -74 34 -104 101 -104 237 0 167 59 244 188 244 36 0 75 -6 91 -15z"/>
<path d="M9560 3969 l0 -899 -4220 0 -4220 0 0 871 0 871 -22 -6 c-13 -3 -58
-9 -100 -12 l-78 -7 0 -958 0 -959 4420 0 4420 0 0 969 0 969 -42 6 c-24 4
-69 17 -100 30 l-58 24 0 -899z"/>
<path d="M4991 4660 c-216 -46 -377 -161 -460 -331 -63 -129 -76 -190 -76
-359 0 -124 4 -156 23 -220 59 -189 169 -325 322 -398 113 -54 202 -72 348
-72 166 0 326 44 432 120 l28 20 -40 93 c-22 50 -46 107 -53 125 l-14 32 -63
-35 c-205 -112 -406 -108 -524 12 -75 77 -111 211 -101 378 8 133 37 207 107
277 68 67 124 88 241 88 92 0 201 -31 280 -79 28 -18 55 -29 60 -24 4 4 30 60
57 123 l49 115 -45 32 c-47 34 -117 63 -212 90 -65 18 -295 26 -359 13z"/>
<path d="M2271 4279 c-121 -24 -252 -120 -309 -227 -48 -91 -65 -164 -64 -277
2 -311 199 -494 533 -495 63 0 123 7 175 20 88 22 204 75 204 93 0 14 -70 199
-80 210 -4 5 -23 -1 -41 -13 -121 -74 -327 -81 -402 -12 -27 24 -53 80 -62
130 l-7 42 306 0 306 0 0 68 c0 174 -90 345 -217 415 -93 50 -229 68 -342 46z
m185 -238 c31 -14 47 -30 63 -63 38 -80 42 -78 -135 -78 l-156 0 6 32 c9 45
56 101 97 115 48 17 78 15 125 -6z"/>
<path d="M3457 4280 c-63 -16 -132 -57 -178 -104 -24 -25 -47 -46 -51 -46 -5
0 -8 15 -8 34 0 18 -3 48 -6 65 l-6 31 -161 0 -160 0 7 -46 c3 -26 6 -244 6
-485 l0 -439 175 0 175 0 0 300 c0 333 2 343 63 397 58 51 152 56 195 10 39
-42 42 -69 42 -393 l0 -314 171 0 170 0 -3 373 c-3 360 -4 374 -26 428 -31 77
-89 141 -154 169 -59 25 -188 36 -251 20z"/>
<path d="M5950 4277 c-119 -35 -219 -120 -271 -231 -77 -165 -74 -392 7 -552
35 -69 117 -147 191 -182 52 -24 70 -27 168 -27 100 0 116 3 173 29 34 16 78
46 97 67 l35 39 0 -65 0 -65 170 0 170 0 0 485 0 485 -170 0 -170 0 0 -60 0
-60 -36 40 c-56 61 -145 101 -240 106 -48 2 -97 -1 -124 -9z m283 -261 c82
-34 123 -128 115 -264 -8 -131 -65 -207 -166 -219 -127 -15 -208 63 -219 212
-10 127 32 230 108 268 41 20 118 22 162 3z"/>
<path d="M7075 4279 c-82 -17 -188 -73 -233 -124 -94 -107 -96 -277 -6 -368
46 -46 105 -69 289 -112 171 -41 195 -53 195 -95 0 -49 -37 -65 -145 -64 -102
0 -204 26 -294 75 -30 16 -56 28 -58 26 -1 -2 -21 -52 -43 -111 -31 -81 -38
-111 -30 -121 21 -25 156 -74 245 -90 103 -18 272 -20 347 -4 118 25 211 86
250 163 26 50 35 163 19 224 -7 24 -28 61 -48 83 -58 64 -137 97 -328 140
-150 32 -183 56 -150 106 44 66 200 56 355 -22 l68 -34 45 112 45 112 -51 27
c-98 52 -203 79 -317 83 -58 2 -127 0 -155 -6z"/>
<path d="M7957 4276 c-198 -57 -317 -246 -317 -501 0 -224 79 -374 238 -452
74 -37 79 -38 186 -38 131 1 177 17 256 91 l50 47 0 -67 0 -66 165 0 165 0 0
485 0 485 -165 0 -165 0 0 -61 0 -61 -41 42 c-60 62 -151 101 -247 106 -47 2
-96 -2 -125 -10z m303 -266 c72 -37 104 -110 104 -236 0 -68 -5 -90 -28 -137
-37 -76 -79 -102 -166 -102 -86 0 -129 26 -165 100 -22 44 -27 68 -27 132 -1
43 5 97 11 121 14 50 63 109 106 128 45 20 120 17 165 -6z"/>
</g>
</svg>
